<svg width="20" height="14" viewBox="0 0 20 14" fill="none" xmlns="http://www.w3.org/2000/svg">
<path d="M17.0589 3.55891C16.9928 3.49417 16.9259 3.43117 16.8589 3.36905L19.0767 1.19561C19.1431 1.13057 19.1958 1.05336 19.2317 0.96839C19.2676 0.883417 19.2861 0.792344 19.2861 0.70037C19.2861 0.608396 19.2676 0.517322 19.2317 0.43235C19.1958 0.347377 19.1431 0.270169 19.0767 0.205133C19.0104 0.140098 18.9316 0.0885094 18.8449 0.0533125C18.7582 0.0181156 18.6652 0 18.5714 0C18.4775 0 18.3846 0.0181156 18.2979 0.0533125C18.2112 0.0885094 18.1324 0.140098 18.066 0.205133L15.7446 2.48007C14.064 1.32075 12.0583 0.699928 10.0031 0.702905C7.94788 0.705882 5.94405 1.33252 4.26696 2.49669L1.93393 0.205133C1.7999 0.0737887 1.61812 0 1.42857 0C1.23903 0 1.05725 0.0737887 0.923217 0.205133C0.789188 0.336478 0.713891 0.51462 0.713891 0.70037C0.713891 0.886119 0.789188 1.06426 0.923217 1.19561L3.16071 3.38829C2.16115 4.31636 1.3653 5.4345 0.821841 6.67433C0.278379 7.91415 -0.00126801 9.2496 4.32216e-06 10.599V12.6C4.32216e-06 12.9713 0.150514 13.3274 0.418422 13.59C0.686331 13.8525 1.04969 14 1.42857 14H18.5714C18.9503 14 19.3136 13.8525 19.5815 13.59C19.8495 13.3274 20 12.9713 20 12.6V10.5001C20.0036 9.20984 19.7455 7.93174 19.2406 6.74012C18.7357 5.5485 17.9941 4.46714 17.0589 3.55891ZM6.7857 10.5001C6.5738 10.5001 6.36665 10.4385 6.19045 10.3231C6.01426 10.2078 5.87693 10.0438 5.79584 9.85193C5.71474 9.66007 5.69352 9.44896 5.73486 9.24529C5.77621 9.04161 5.87825 8.85453 6.02809 8.70769C6.17793 8.56084 6.36884 8.46084 6.57668 8.42033C6.78451 8.37982 6.99994 8.40061 7.19572 8.48008C7.3915 8.55955 7.55883 8.69413 7.67656 8.86679C7.79429 9.03946 7.85713 9.24246 7.85713 9.45013C7.85713 9.7286 7.74425 9.99566 7.54332 10.1926C7.34239 10.3895 7.06986 10.5001 6.7857 10.5001ZM13.2143 10.5001C13.0024 10.5001 12.7952 10.4385 12.619 10.3231C12.4428 10.2078 12.3055 10.0438 12.2244 9.85193C12.1433 9.66007 12.1221 9.44896 12.1634 9.24529C12.2048 9.04161 12.3068 8.85453 12.4566 8.70769C12.6065 8.56084 12.7974 8.46084 13.0052 8.42033C13.2131 8.37982 13.4285 8.40061 13.6243 8.48008C13.8201 8.55955 13.9874 8.69413 14.1051 8.86679C14.2228 9.03946 14.2857 9.24246 14.2857 9.45013C14.2857 9.7286 14.1728 9.99566 13.9719 10.1926C13.7709 10.3895 13.4984 10.5001 13.2143 10.5001Z" fill="white"/>
</svg>
