<svg width="23" height="16" viewBox="0 0 23 16" fill="none" xmlns="http://www.w3.org/2000/svg">
<path d="M23 7.27171C23 7.46459 22.9243 7.64957 22.7895 7.78596C22.6547 7.92235 22.4719 7.99897 22.2812 7.99897H0.71875C0.528126 7.99897 0.345309 7.92235 0.210517 7.78596C0.0757252 7.64957 0 7.46459 0 7.27171C0 7.07883 0.0757252 6.89385 0.210517 6.75746C0.345309 6.62107 0.528126 6.54445 0.71875 6.54445H3.22719L7.49477 0.598192C7.62409 0.418532 7.79238 0.27125 7.98672 0.167655C8.18106 0.0640603 8.39629 0.00690842 8.61586 0.000588241C8.83543 -0.00573194 9.05351 0.0389478 9.25336 0.131196C9.45321 0.223445 9.6295 0.360808 9.76871 0.532738L10.9232 1.88726L10.9412 1.90817C11.0081 1.9932 11.0931 2.06187 11.1898 2.10907C11.2866 2.15627 11.3926 2.18078 11.5 2.18078C11.6074 2.18078 11.7134 2.15627 11.8102 2.10907C11.9069 2.06187 11.9919 1.9932 12.0588 1.90817L12.0768 1.88726L13.2313 0.532738C13.3705 0.360808 13.5468 0.223445 13.7466 0.131196C13.9465 0.0389478 14.1646 -0.00573194 14.3841 0.000588241C14.6037 0.00690842 14.8189 0.0640603 15.0133 0.167655C15.2076 0.27125 15.3759 0.418532 15.5052 0.598192L19.7728 6.54445H22.2812C22.4719 6.54445 22.6547 6.62107 22.7895 6.75746C22.9243 6.89385 23 7.07883 23 7.27171ZM16.1719 9.45349C15.3764 9.45365 14.6089 9.75042 14.016 10.2871C13.4232 10.8237 13.0465 11.5626 12.9582 12.3625H10.0418C9.95324 11.5634 9.57695 10.8252 8.98475 10.2888C8.39255 9.75248 7.62592 9.45553 6.83114 9.45466C6.03637 9.45378 5.2691 9.74903 4.67575 10.2841C4.08239 10.8191 3.70451 11.5565 3.61419 12.3554C3.52388 13.1544 3.72746 13.9591 4.1861 14.6158C4.64473 15.2726 5.3263 15.7356 6.10074 15.9163C6.87519 16.097 7.68829 15.9829 8.38488 15.5957C9.08147 15.2085 9.61278 14.5753 9.87742 13.817H13.1226C13.3202 14.3827 13.6678 14.8825 14.1272 15.2618C14.5866 15.6412 15.1403 15.8854 15.7276 15.9678C16.315 16.0502 16.9134 15.9677 17.4575 15.7292C18.0017 15.4907 18.4705 15.1055 18.8129 14.6156C19.1552 14.1257 19.3579 13.55 19.3987 12.9514C19.4395 12.3529 19.3169 11.7545 19.0443 11.2216C18.7717 10.6888 18.3596 10.2421 17.853 9.93023C17.3464 9.61839 16.7648 9.45347 16.1719 9.45349Z" fill="white"/>
</svg>
